<mxfile host="app.diagrams.net" modified="2023-06-19T16:23:44.964Z" agent="Mozilla/5.0 (Windows NT 10.0; Win64; x64) AppleWebKit/537.36 (KHTML, like Gecko) Chrome/114.0.0.0 Safari/537.36" etag="39-HaN1674LDiDhIP0k0" version="21.5.0" type="device">
  <diagram id="YEPRp439FOyuivhCjxyS" name="Halaman-1">
    <mxGraphModel dx="1434" dy="729" grid="1" gridSize="10" guides="1" tooltips="1" connect="1" arrows="1" fold="1" page="1" pageScale="1" pageWidth="827" pageHeight="1169" math="0" shadow="0">
      <root>
        <mxCell id="0" />
        <mxCell id="1" parent="0" />
        <mxCell id="Yoq6rs2DmQHOd9DpItSG-1" value="Activity Diagram Melihat Data Spesialis" style="swimlane;childLayout=stackLayout;resizeParent=1;resizeParentMax=0;startSize=20;html=1;" vertex="1" parent="1">
          <mxGeometry x="230" y="140" width="360" height="350" as="geometry" />
        </mxCell>
        <mxCell id="Yoq6rs2DmQHOd9DpItSG-2" value="Owner Rumah Sakit" style="swimlane;startSize=20;html=1;" vertex="1" parent="Yoq6rs2DmQHOd9DpItSG-1">
          <mxGeometry y="20" width="170" height="330" as="geometry" />
        </mxCell>
        <mxCell id="Yoq6rs2DmQHOd9DpItSG-25" style="edgeStyle=orthogonalEdgeStyle;rounded=0;orthogonalLoop=1;jettySize=auto;html=1;entryX=0.5;entryY=0;entryDx=0;entryDy=0;" edge="1" parent="Yoq6rs2DmQHOd9DpItSG-2" source="Yoq6rs2DmQHOd9DpItSG-5" target="Yoq6rs2DmQHOd9DpItSG-7">
          <mxGeometry relative="1" as="geometry" />
        </mxCell>
        <mxCell id="Yoq6rs2DmQHOd9DpItSG-5" value="" style="ellipse;html=1;shape=startState;fillColor=#000000;strokeColor=#ff0000;" vertex="1" parent="Yoq6rs2DmQHOd9DpItSG-2">
          <mxGeometry x="78.99999999999955" y="25" width="30" height="30" as="geometry" />
        </mxCell>
        <mxCell id="Yoq6rs2DmQHOd9DpItSG-7" value="Login" style="rounded=1;whiteSpace=wrap;html=1;arcSize=40;fontColor=#000000;fillColor=default;strokeColor=default;" vertex="1" parent="Yoq6rs2DmQHOd9DpItSG-2">
          <mxGeometry x="33.999999999999545" y="85" width="120" height="40" as="geometry" />
        </mxCell>
        <mxCell id="Yoq6rs2DmQHOd9DpItSG-11" value="Memilih menu master data" style="rounded=1;whiteSpace=wrap;html=1;arcSize=40;fontColor=#000000;fillColor=default;strokeColor=default;" vertex="1" parent="Yoq6rs2DmQHOd9DpItSG-2">
          <mxGeometry x="38.999999999999545" y="155" width="120" height="40" as="geometry" />
        </mxCell>
        <mxCell id="Yoq6rs2DmQHOd9DpItSG-15" value="menekan menu data spesialis" style="rounded=1;whiteSpace=wrap;html=1;arcSize=40;fontColor=#000000;fillColor=default;strokeColor=default;" vertex="1" parent="Yoq6rs2DmQHOd9DpItSG-2">
          <mxGeometry x="38.999999999999545" y="225" width="120" height="40" as="geometry" />
        </mxCell>
        <mxCell id="Yoq6rs2DmQHOd9DpItSG-3" value="Sistem" style="swimlane;startSize=20;html=1;" vertex="1" parent="Yoq6rs2DmQHOd9DpItSG-1">
          <mxGeometry x="170" y="20" width="190" height="330" as="geometry" />
        </mxCell>
        <mxCell id="Yoq6rs2DmQHOd9DpItSG-9" value="Menampilkan halaman dashboard" style="rounded=1;whiteSpace=wrap;html=1;arcSize=40;fontColor=#000000;fillColor=default;strokeColor=default;" vertex="1" parent="Yoq6rs2DmQHOd9DpItSG-3">
          <mxGeometry x="43.999999999999545" y="85" width="120" height="40" as="geometry" />
        </mxCell>
        <mxCell id="Yoq6rs2DmQHOd9DpItSG-13" value="menampilkan dropdown menu pilihan" style="rounded=1;whiteSpace=wrap;html=1;arcSize=40;fontColor=#000000;fillColor=default;strokeColor=default;" vertex="1" parent="Yoq6rs2DmQHOd9DpItSG-3">
          <mxGeometry x="43.999999999999545" y="155" width="120" height="40" as="geometry" />
        </mxCell>
        <mxCell id="Yoq6rs2DmQHOd9DpItSG-23" value="" style="edgeStyle=orthogonalEdgeStyle;rounded=0;orthogonalLoop=1;jettySize=auto;html=1;" edge="1" parent="Yoq6rs2DmQHOd9DpItSG-3" source="Yoq6rs2DmQHOd9DpItSG-18" target="Yoq6rs2DmQHOd9DpItSG-22">
          <mxGeometry relative="1" as="geometry" />
        </mxCell>
        <mxCell id="Yoq6rs2DmQHOd9DpItSG-18" value="Menampilkan data spesialis" style="rounded=1;whiteSpace=wrap;html=1;arcSize=40;fontColor=#000000;fillColor=default;strokeColor=default;" vertex="1" parent="Yoq6rs2DmQHOd9DpItSG-3">
          <mxGeometry x="43.999999999999545" y="225" width="120" height="40" as="geometry" />
        </mxCell>
        <mxCell id="Yoq6rs2DmQHOd9DpItSG-22" value="" style="ellipse;html=1;shape=endState;fillColor=#000000;strokeColor=#ff0000;" vertex="1" parent="Yoq6rs2DmQHOd9DpItSG-3">
          <mxGeometry x="88.99999999999955" y="295" width="30" height="30" as="geometry" />
        </mxCell>
        <mxCell id="Yoq6rs2DmQHOd9DpItSG-10" value="" style="edgeStyle=orthogonalEdgeStyle;rounded=0;orthogonalLoop=1;jettySize=auto;html=1;" edge="1" parent="Yoq6rs2DmQHOd9DpItSG-1" source="Yoq6rs2DmQHOd9DpItSG-7" target="Yoq6rs2DmQHOd9DpItSG-9">
          <mxGeometry relative="1" as="geometry" />
        </mxCell>
        <mxCell id="Yoq6rs2DmQHOd9DpItSG-12" style="edgeStyle=orthogonalEdgeStyle;rounded=0;orthogonalLoop=1;jettySize=auto;html=1;entryX=0.454;entryY=0.016;entryDx=0;entryDy=0;entryPerimeter=0;" edge="1" parent="Yoq6rs2DmQHOd9DpItSG-1" source="Yoq6rs2DmQHOd9DpItSG-9" target="Yoq6rs2DmQHOd9DpItSG-11">
          <mxGeometry relative="1" as="geometry">
            <Array as="points">
              <mxPoint x="274" y="155" />
              <mxPoint x="94" y="155" />
            </Array>
          </mxGeometry>
        </mxCell>
        <mxCell id="Yoq6rs2DmQHOd9DpItSG-14" value="" style="edgeStyle=orthogonalEdgeStyle;rounded=0;orthogonalLoop=1;jettySize=auto;html=1;" edge="1" parent="Yoq6rs2DmQHOd9DpItSG-1" source="Yoq6rs2DmQHOd9DpItSG-11" target="Yoq6rs2DmQHOd9DpItSG-13">
          <mxGeometry relative="1" as="geometry" />
        </mxCell>
        <mxCell id="Yoq6rs2DmQHOd9DpItSG-17" style="edgeStyle=orthogonalEdgeStyle;rounded=0;orthogonalLoop=1;jettySize=auto;html=1;entryX=0.456;entryY=0.011;entryDx=0;entryDy=0;entryPerimeter=0;" edge="1" parent="Yoq6rs2DmQHOd9DpItSG-1" source="Yoq6rs2DmQHOd9DpItSG-13" target="Yoq6rs2DmQHOd9DpItSG-15">
          <mxGeometry relative="1" as="geometry">
            <Array as="points">
              <mxPoint x="274" y="225" />
              <mxPoint x="94" y="225" />
            </Array>
          </mxGeometry>
        </mxCell>
        <mxCell id="Yoq6rs2DmQHOd9DpItSG-19" value="" style="edgeStyle=orthogonalEdgeStyle;rounded=0;orthogonalLoop=1;jettySize=auto;html=1;" edge="1" parent="Yoq6rs2DmQHOd9DpItSG-1" source="Yoq6rs2DmQHOd9DpItSG-15" target="Yoq6rs2DmQHOd9DpItSG-18">
          <mxGeometry relative="1" as="geometry" />
        </mxCell>
      </root>
    </mxGraphModel>
  </diagram>
</mxfile>
